0
SECTION
2
HEADER
9
$ACADVER
1
AC1021
0
ENDSEC
0
SECTION
2
TABLES
0
ENDSEC
0
SECTION
2
BLOCKS
0
ENDSEC
0
SECTION
2
ENTITIES
999
100 merge locations; near points are within 1e-6 tolerance
0
POINT
8
MERGE_POINTS
10
0
20
0
30
0
0
POINT
8
MERGE_POINTS_NEAR
10
2e-7
20
-2e-7
30
0
0
POINT
8
MERGE_POINTS
10
10
20
0
30
0
0
POINT
8
MERGE_POINTS_NEAR
10
9.9999998
20
-2e-7
30
0
0
POINT
8
MERGE_POINTS
10
20
20
0
30
0
0
POINT
8
MERGE_POINTS_NEAR
10
20.0000002
20
-2e-7
30
0
0
POINT
8
MERGE_POINTS
10
30
20
0
30
0
0
POINT
8
MERGE_POINTS_NEAR
10
29.9999998
20
-2e-7
30
0
0
POINT
8
MERGE_POINTS
10
40
20
0
30
0
0
POINT
8
MERGE_POINTS_NEAR
10
40.0000002
20
-2e-7
30
0
0
POINT
8
MERGE_POINTS
10
50
20
0
30
0
0
POINT
8
MERGE_POINTS_NEAR
10
49.9999998
20
-2e-7
30
0
0
POINT
8
MERGE_POINTS
10
60
20
0
30
0
0
POINT
8
MERGE_POINTS_NEAR
10
60.0000002
20
-2e-7
30
0
0
POINT
8
MERGE_POINTS
10
70
20
0
30
0
0
POINT
8
MERGE_POINTS_NEAR
10
69.9999998
20
-2e-7
30
0
0
POINT
8
MERGE_POINTS
10
80
20
0
30
0
0
POINT
8
MERGE_POINTS_NEAR
10
80.0000002
20
-2e-7
30
0
0
POINT
8
MERGE_POINTS
10
90
20
0
30
0
0
POINT
8
MERGE_POINTS_NEAR
10
89.9999998
20
-2e-7
30
0
0
POINT
8
MERGE_POINTS
10
0
20
10
30
0
0
POINT
8
MERGE_POINTS_NEAR
10
2e-7
20
10.0000002
30
0
0
POINT
8
MERGE_POINTS
10
10
20
10
30
0
0
POINT
8
MERGE_POINTS_NEAR
10
9.9999998
20
10.0000002
30
0
0
POINT
8
MERGE_POINTS
10
20
20
10
30
0
0
POINT
8
MERGE_POINTS_NEAR
10
20.0000002
20
10.0000002
30
0
0
POINT
8
MERGE_POINTS
10
30
20
10
30
0
0
POINT
8
MERGE_POINTS_NEAR
10
29.9999998
20
10.0000002
30
0
0
POINT
8
MERGE_POINTS
10
40
20
10
30
0
0
POINT
8
MERGE_POINTS_NEAR
10
40.0000002
20
10.0000002
30
0
0
POINT
8
MERGE_POINTS
10
50
20
10
30
0
0
POINT
8
MERGE_POINTS_NEAR
10
49.9999998
20
10.0000002
30
0
0
POINT
8
MERGE_POINTS
10
60
20
10
30
0
0
POINT
8
MERGE_POINTS_NEAR
10
60.0000002
20
10.0000002
30
0
0
POINT
8
MERGE_POINTS
10
70
20
10
30
0
0
POINT
8
MERGE_POINTS_NEAR
10
69.9999998
20
10.0000002
30
0
0
POINT
8
MERGE_POINTS
10
80
20
10
30
0
0
POINT
8
MERGE_POINTS_NEAR
10
80.0000002
20
10.0000002
30
0
0
POINT
8
MERGE_POINTS
10
90
20
10
30
0
0
POINT
8
MERGE_POINTS_NEAR
10
89.9999998
20
10.0000002
30
0
0
POINT
8
MERGE_POINTS
10
0
20
20
30
0
0
POINT
8
MERGE_POINTS_NEAR
10
2e-7
20
19.9999998
30
0
0
POINT
8
MERGE_POINTS
10
10
20
20
30
0
0
POINT
8
MERGE_POINTS_NEAR
10
9.9999998
20
19.9999998
30
0
0
POINT
8
MERGE_POINTS
10
20
20
20
30
0
0
POINT
8
MERGE_POINTS_NEAR
10
20.0000002
20
19.9999998
30
0
0
POINT
8
MERGE_POINTS
10
30
20
20
30
0
0
POINT
8
MERGE_POINTS_NEAR
10
29.9999998
20
19.9999998
30
0
0
POINT
8
MERGE_POINTS
10
40
20
20
30
0
0
POINT
8
MERGE_POINTS_NEAR
10
40.0000002
20
19.9999998
30
0
0
POINT
8
MERGE_POINTS
10
50
20
20
30
0
0
POINT
8
MERGE_POINTS_NEAR
10
49.9999998
20
19.9999998
30
0
0
POINT
8
MERGE_POINTS
10
60
20
20
30
0
0
POINT
8
MERGE_POINTS_NEAR
10
60.0000002
20
19.9999998
30
0
0
POINT
8
MERGE_POINTS
10
70
20
20
30
0
0
POINT
8
MERGE_POINTS_NEAR
10
69.9999998
20
19.9999998
30
0
0
POINT
8
MERGE_POINTS
10
80
20
20
30
0
0
POINT
8
MERGE_POINTS_NEAR
10
80.0000002
20
19.9999998
30
0
0
POINT
8
MERGE_POINTS
10
90
20
20
30
0
0
POINT
8
MERGE_POINTS_NEAR
10
89.9999998
20
19.9999998
30
0
0
POINT
8
MERGE_POINTS
10
0
20
30
30
0
0
POINT
8
MERGE_POINTS_NEAR
10
2e-7
20
30.0000002
30
0
0
POINT
8
MERGE_POINTS
10
10
20
30
30
0
0
POINT
8
MERGE_POINTS_NEAR
10
9.9999998
20
30.0000002
30
0
0
POINT
8
MERGE_POINTS
10
20
20
30
30
0
0
POINT
8
MERGE_POINTS_NEAR
10
20.0000002
20
30.0000002
30
0
0
POINT
8
MERGE_POINTS
10
30
20
30
30
0
0
POINT
8
MERGE_POINTS_NEAR
10
29.9999998
20
30.0000002
30
0
0
POINT
8
MERGE_POINTS
10
40
20
30
30
0
0
POINT
8
MERGE_POINTS_NEAR
10
40.0000002
20
30.0000002
30
0
0
POINT
8
MERGE_POINTS
10
50
20
30
30
0
0
POINT
8
MERGE_POINTS_NEAR
10
49.9999998
20
30.0000002
30
0
0
POINT
8
MERGE_POINTS
10
60
20
30
30
0
0
POINT
8
MERGE_POINTS_NEAR
10
60.0000002
20
30.0000002
30
0
0
POINT
8
MERGE_POINTS
10
70
20
30
30
0
0
POINT
8
MERGE_POINTS_NEAR
10
69.9999998
20
30.0000002
30
0
0
POINT
8
MERGE_POINTS
10
80
20
30
30
0
0
POINT
8
MERGE_POINTS_NEAR
10
80.0000002
20
30.0000002
30
0
0
POINT
8
MERGE_POINTS
10
90
20
30
30
0
0
POINT
8
MERGE_POINTS_NEAR
10
89.9999998
20
30.0000002
30
0
0
POINT
8
MERGE_POINTS
10
0
20
40
30
0
0
POINT
8
MERGE_POINTS_NEAR
10
2e-7
20
39.9999998
30
0
0
POINT
8
MERGE_POINTS
10
10
20
40
30
0
0
POINT
8
MERGE_POINTS_NEAR
10
9.9999998
20
39.9999998
30
0
0
POINT
8
MERGE_POINTS
10
20
20
40
30
0
0
POINT
8
MERGE_POINTS_NEAR
10
20.0000002
20
39.9999998
30
0
0
POINT
8
MERGE_POINTS
10
30
20
40
30
0
0
POINT
8
MERGE_POINTS_NEAR
10
29.9999998
20
39.9999998
30
0
0
POINT
8
MERGE_POINTS
10
40
20
40
30
0
0
POINT
8
MERGE_POINTS_NEAR
10
40.0000002
20
39.9999998
30
0
0
POINT
8
MERGE_POINTS
10
50
20
40
30
0
0
POINT
8
MERGE_POINTS_NEAR
10
49.9999998
20
39.9999998
30
0
0
POINT
8
MERGE_POINTS
10
60
20
40
30
0
0
POINT
8
MERGE_POINTS_NEAR
10
60.0000002
20
39.9999998
30
0
0
POINT
8
MERGE_POINTS
10
70
20
40
30
0
0
POINT
8
MERGE_POINTS_NEAR
10
69.9999998
20
39.9999998
30
0
0
POINT
8
MERGE_POINTS
10
80
20
40
30
0
0
POINT
8
MERGE_POINTS_NEAR
10
80.0000002
20
39.9999998
30
0
0
POINT
8
MERGE_POINTS
10
90
20
40
30
0
0
POINT
8
MERGE_POINTS_NEAR
10
89.9999998
20
39.9999998
30
0
0
POINT
8
MERGE_POINTS
10
0
20
50
30
0
0
POINT
8
MERGE_POINTS_NEAR
10
2e-7
20
50.0000002
30
0
0
POINT
8
MERGE_POINTS
10
10
20
50
30
0
0
POINT
8
MERGE_POINTS_NEAR
10
9.9999998
20
50.0000002
30
0
0
POINT
8
MERGE_POINTS
10
20
20
50
30
0
0
POINT
8
MERGE_POINTS_NEAR
10
20.0000002
20
50.0000002
30
0
0
POINT
8
MERGE_POINTS
10
30
20
50
30
0
0
POINT
8
MERGE_POINTS_NEAR
10
29.9999998
20
50.0000002
30
0
0
POINT
8
MERGE_POINTS
10
40
20
50
30
0
0
POINT
8
MERGE_POINTS_NEAR
10
40.0000002
20
50.0000002
30
0
0
POINT
8
MERGE_POINTS
10
50
20
50
30
0
0
POINT
8
MERGE_POINTS_NEAR
10
49.9999998
20
50.0000002
30
0
0
POINT
8
MERGE_POINTS
10
60
20
50
30
0
0
POINT
8
MERGE_POINTS_NEAR
10
60.0000002
20
50.0000002
30
0
0
POINT
8
MERGE_POINTS
10
70
20
50
30
0
0
POINT
8
MERGE_POINTS_NEAR
10
69.9999998
20
50.0000002
30
0
0
POINT
8
MERGE_POINTS
10
80
20
50
30
0
0
POINT
8
MERGE_POINTS_NEAR
10
80.0000002
20
50.0000002
30
0
0
POINT
8
MERGE_POINTS
10
90
20
50
30
0
0
POINT
8
MERGE_POINTS_NEAR
10
89.9999998
20
50.0000002
30
0
0
POINT
8
MERGE_POINTS
10
0
20
60
30
0
0
POINT
8
MERGE_POINTS_NEAR
10
2e-7
20
59.9999998
30
0
0
POINT
8
MERGE_POINTS
10
10
20
60
30
0
0
POINT
8
MERGE_POINTS_NEAR
10
9.9999998
20
59.9999998
30
0
0
POINT
8
MERGE_POINTS
10
20
20
60
30
0
0
POINT
8
MERGE_POINTS_NEAR
10
20.0000002
20
59.9999998
30
0
0
POINT
8
MERGE_POINTS
10
30
20
60
30
0
0
POINT
8
MERGE_POINTS_NEAR
10
29.9999998
20
59.9999998
30
0
0
POINT
8
MERGE_POINTS
10
40
20
60
30
0
0
POINT
8
MERGE_POINTS_NEAR
10
40.0000002
20
59.9999998
30
0
0
POINT
8
MERGE_POINTS
10
50
20
60
30
0
0
POINT
8
MERGE_POINTS_NEAR
10
49.9999998
20
59.9999998
30
0
0
POINT
8
MERGE_POINTS
10
60
20
60
30
0
0
POINT
8
MERGE_POINTS_NEAR
10
60.0000002
20
59.9999998
30
0
0
POINT
8
MERGE_POINTS
10
70
20
60
30
0
0
POINT
8
MERGE_POINTS_NEAR
10
69.9999998
20
59.9999998
30
0
0
POINT
8
MERGE_POINTS
10
80
20
60
30
0
0
POINT
8
MERGE_POINTS_NEAR
10
80.0000002
20
59.9999998
30
0
0
POINT
8
MERGE_POINTS
10
90
20
60
30
0
0
POINT
8
MERGE_POINTS_NEAR
10
89.9999998
20
59.9999998
30
0
0
POINT
8
MERGE_POINTS
10
0
20
70
30
0
0
POINT
8
MERGE_POINTS_NEAR
10
2e-7
20
70.0000002
30
0
0
POINT
8
MERGE_POINTS
10
10
20
70
30
0
0
POINT
8
MERGE_POINTS_NEAR
10
9.9999998
20
70.0000002
30
0
0
POINT
8
MERGE_POINTS
10
20
20
70
30
0
0
POINT
8
MERGE_POINTS_NEAR
10
20.0000002
20
70.0000002
30
0
0
POINT
8
MERGE_POINTS
10
30
20
70
30
0
0
POINT
8
MERGE_POINTS_NEAR
10
29.9999998
20
70.0000002
30
0
0
POINT
8
MERGE_POINTS
10
40
20
70
30
0
0
POINT
8
MERGE_POINTS_NEAR
10
40.0000002
20
70.0000002
30
0
0
POINT
8
MERGE_POINTS
10
50
20
70
30
0
0
POINT
8
MERGE_POINTS_NEAR
10
49.9999998
20
70.0000002
30
0
0
POINT
8
MERGE_POINTS
10
60
20
70
30
0
0
POINT
8
MERGE_POINTS_NEAR
10
60.0000002
20
70.0000002
30
0
0
POINT
8
MERGE_POINTS
10
70
20
70
30
0
0
POINT
8
MERGE_POINTS_NEAR
10
69.9999998
20
70.0000002
30
0
0
POINT
8
MERGE_POINTS
10
80
20
70
30
0
0
POINT
8
MERGE_POINTS_NEAR
10
80.0000002
20
70.0000002
30
0
0
POINT
8
MERGE_POINTS
10
90
20
70
30
0
0
POINT
8
MERGE_POINTS_NEAR
10
89.9999998
20
70.0000002
30
0
0
POINT
8
MERGE_POINTS
10
0
20
80
30
0
0
POINT
8
MERGE_POINTS_NEAR
10
2e-7
20
79.9999998
30
0
0
POINT
8
MERGE_POINTS
10
10
20
80
30
0
0
POINT
8
MERGE_POINTS_NEAR
10
9.9999998
20
79.9999998
30
0
0
POINT
8
MERGE_POINTS
10
20
20
80
30
0
0
POINT
8
MERGE_POINTS_NEAR
10
20.0000002
20
79.9999998
30
0
0
POINT
8
MERGE_POINTS
10
30
20
80
30
0
0
POINT
8
MERGE_POINTS_NEAR
10
29.9999998
20
79.9999998
30
0
0
POINT
8
MERGE_POINTS
10
40
20
80
30
0
0
POINT
8
MERGE_POINTS_NEAR
10
40.0000002
20
79.9999998
30
0
0
POINT
8
MERGE_POINTS
10
50
20
80
30
0
0
POINT
8
MERGE_POINTS_NEAR
10
49.9999998
20
79.9999998
30
0
0
POINT
8
MERGE_POINTS
10
60
20
80
30
0
0
POINT
8
MERGE_POINTS_NEAR
10
60.0000002
20
79.9999998
30
0
0
POINT
8
MERGE_POINTS
10
70
20
80
30
0
0
POINT
8
MERGE_POINTS_NEAR
10
69.9999998
20
79.9999998
30
0
0
POINT
8
MERGE_POINTS
10
80
20
80
30
0
0
POINT
8
MERGE_POINTS_NEAR
10
80.0000002
20
79.9999998
30
0
0
POINT
8
MERGE_POINTS
10
90
20
80
30
0
0
POINT
8
MERGE_POINTS_NEAR
10
89.9999998
20
79.9999998
30
0
0
POINT
8
MERGE_POINTS
10
0
20
90
30
0
0
POINT
8
MERGE_POINTS_NEAR
10
2e-7
20
90.0000002
30
0
0
POINT
8
MERGE_POINTS
10
10
20
90
30
0
0
POINT
8
MERGE_POINTS_NEAR
10
9.9999998
20
90.0000002
30
0
0
POINT
8
MERGE_POINTS
10
20
20
90
30
0
0
POINT
8
MERGE_POINTS_NEAR
10
20.0000002
20
90.0000002
30
0
0
POINT
8
MERGE_POINTS
10
30
20
90
30
0
0
POINT
8
MERGE_POINTS_NEAR
10
29.9999998
20
90.0000002
30
0
0
POINT
8
MERGE_POINTS
10
40
20
90
30
0
0
POINT
8
MERGE_POINTS_NEAR
10
40.0000002
20
90.0000002
30
0
0
POINT
8
MERGE_POINTS
10
50
20
90
30
0
0
POINT
8
MERGE_POINTS_NEAR
10
49.9999998
20
90.0000002
30
0
0
POINT
8
MERGE_POINTS
10
60
20
90
30
0
0
POINT
8
MERGE_POINTS_NEAR
10
60.0000002
20
90.0000002
30
0
0
POINT
8
MERGE_POINTS
10
70
20
90
30
0
0
POINT
8
MERGE_POINTS_NEAR
10
69.9999998
20
90.0000002
30
0
0
POINT
8
MERGE_POINTS
10
80
20
90
30
0
0
POINT
8
MERGE_POINTS_NEAR
10
80.0000002
20
90.0000002
30
0
0
POINT
8
MERGE_POINTS
10
90
20
90
30
0
0
POINT
8
MERGE_POINTS_NEAR
10
89.9999998
20
90.0000002
30
0
0
LINE
8
GRID_HORIZONTAL
10
2e-7
20
0
30
0
11
10
21
-2e-7
31
0
0
LINE
8
DUPLICATE_REVERSED
10
10
20
0
30
0
11
0
21
0
31
0
0
LINE
8
GRID_HORIZONTAL
10
10.0000002
20
0
30
0
11
20
21
-2e-7
31
0
0
LINE
8
GRID_HORIZONTAL
10
20.0000002
20
0
30
0
11
30
21
-2e-7
31
0
0
LINE
8
GRID_HORIZONTAL
10
30.0000002
20
0
30
0
11
40
21
-2e-7
31
0
0
LINE
8
GRID_HORIZONTAL
10
40.0000002
20
0
30
0
11
50
21
-2e-7
31
0
0
LINE
8
GRID_HORIZONTAL
10
50.0000002
20
0
30
0
11
60
21
-2e-7
31
0
0
LINE
8
GRID_HORIZONTAL
10
60.0000002
20
0
30
0
11
70
21
-2e-7
31
0
0
LINE
8
GRID_HORIZONTAL
10
70.0000002
20
0
30
0
11
80
21
-2e-7
31
0
0
LINE
8
GRID_HORIZONTAL
10
80.0000002
20
0
30
0
11
90
21
-2e-7
31
0
0
LINE
8
GRID_HORIZONTAL
10
-2e-7
20
10
30
0
11
10
21
10.0000002
31
0
0
LINE
8
GRID_HORIZONTAL
10
9.9999998
20
10
30
0
11
20
21
10.0000002
31
0
0
LINE
8
DUPLICATE_REVERSED
10
20
20
10
30
0
11
10
21
10
31
0
0
LINE
8
GRID_HORIZONTAL
10
19.9999998
20
10
30
0
11
30
21
10.0000002
31
0
0
LINE
8
GRID_HORIZONTAL
10
29.9999998
20
10
30
0
11
40
21
10.0000002
31
0
0
LINE
8
GRID_HORIZONTAL
10
39.9999998
20
10
30
0
11
50
21
10.0000002
31
0
0
LINE
8
GRID_HORIZONTAL
10
49.9999998
20
10
30
0
11
60
21
10.0000002
31
0
0
LINE
8
GRID_HORIZONTAL
10
59.9999998
20
10
30
0
11
70
21
10.0000002
31
0
0
LINE
8
GRID_HORIZONTAL
10
69.9999998
20
10
30
0
11
80
21
10.0000002
31
0
0
LINE
8
GRID_HORIZONTAL
10
79.9999998
20
10
30
0
11
90
21
10.0000002
31
0
0
LINE
8
GRID_HORIZONTAL
10
2e-7
20
20
30
0
11
10
21
19.9999998
31
0
0
LINE
8
GRID_HORIZONTAL
10
10.0000002
20
20
30
0
11
20
21
19.9999998
31
0
0
LINE
8
GRID_HORIZONTAL
10
20.0000002
20
20
30
0
11
30
21
19.9999998
31
0
0
LINE
8
DUPLICATE_REVERSED
10
30
20
20
30
0
11
20
21
20
31
0
0
LINE
8
GRID_HORIZONTAL
10
30.0000002
20
20
30
0
11
40
21
19.9999998
31
0
0
LINE
8
GRID_HORIZONTAL
10
40.0000002
20
20
30
0
11
50
21
19.9999998
31
0
0
LINE
8
GRID_HORIZONTAL
10
50.0000002
20
20
30
0
11
60
21
19.9999998
31
0
0
LINE
8
GRID_HORIZONTAL
10
60.0000002
20
20
30
0
11
70
21
19.9999998
31
0
0
LINE
8
GRID_HORIZONTAL
10
70.0000002
20
20
30
0
11
80
21
19.9999998
31
0
0
LINE
8
GRID_HORIZONTAL
10
80.0000002
20
20
30
0
11
90
21
19.9999998
31
0
0
LINE
8
GRID_HORIZONTAL
10
-2e-7
20
30
30
0
11
10
21
30.0000002
31
0
0
LINE
8
GRID_HORIZONTAL
10
9.9999998
20
30
30
0
11
20
21
30.0000002
31
0
0
LINE
8
GRID_HORIZONTAL
10
19.9999998
20
30
30
0
11
30
21
30.0000002
31
0
0
LINE
8
GRID_HORIZONTAL
10
29.9999998
20
30
30
0
11
40
21
30.0000002
31
0
0
LINE
8
DUPLICATE_REVERSED
10
40
20
30
30
0
11
30
21
30
31
0
0
LINE
8
GRID_HORIZONTAL
10
39.9999998
20
30
30
0
11
50
21
30.0000002
31
0
0
LINE
8
GRID_HORIZONTAL
10
49.9999998
20
30
30
0
11
60
21
30.0000002
31
0
0
LINE
8
GRID_HORIZONTAL
10
59.9999998
20
30
30
0
11
70
21
30.0000002
31
0
0
LINE
8
GRID_HORIZONTAL
10
69.9999998
20
30
30
0
11
80
21
30.0000002
31
0
0
LINE
8
GRID_HORIZONTAL
10
79.9999998
20
30
30
0
11
90
21
30.0000002
31
0
0
LINE
8
GRID_HORIZONTAL
10
2e-7
20
40
30
0
11
10
21
39.9999998
31
0
0
LINE
8
GRID_HORIZONTAL
10
10.0000002
20
40
30
0
11
20
21
39.9999998
31
0
0
LINE
8
GRID_HORIZONTAL
10
20.0000002
20
40
30
0
11
30
21
39.9999998
31
0
0
LINE
8
GRID_HORIZONTAL
10
30.0000002
20
40
30
0
11
40
21
39.9999998
31
0
0
LINE
8
GRID_HORIZONTAL
10
40.0000002
20
40
30
0
11
50
21
39.9999998
31
0
0
LINE
8
DUPLICATE_REVERSED
10
50
20
40
30
0
11
40
21
40
31
0
0
LINE
8
GRID_HORIZONTAL
10
50.0000002
20
40
30
0
11
60
21
39.9999998
31
0
0
LINE
8
GRID_HORIZONTAL
10
60.0000002
20
40
30
0
11
70
21
39.9999998
31
0
0
LINE
8
GRID_HORIZONTAL
10
70.0000002
20
40
30
0
11
80
21
39.9999998
31
0
0
LINE
8
GRID_HORIZONTAL
10
80.0000002
20
40
30
0
11
90
21
39.9999998
31
0
0
LINE
8
GRID_HORIZONTAL
10
-2e-7
20
50
30
0
11
10
21
50.0000002
31
0
0
LINE
8
GRID_HORIZONTAL
10
9.9999998
20
50
30
0
11
20
21
50.0000002
31
0
0
LINE
8
GRID_HORIZONTAL
10
19.9999998
20
50
30
0
11
30
21
50.0000002
31
0
0
LINE
8
GRID_HORIZONTAL
10
29.9999998
20
50
30
0
11
40
21
50.0000002
31
0
0
LINE
8
GRID_HORIZONTAL
10
39.9999998
20
50
30
0
11
50
21
50.0000002
31
0
0
LINE
8
GRID_HORIZONTAL
10
49.9999998
20
50
30
0
11
60
21
50.0000002
31
0
0
LINE
8
DUPLICATE_REVERSED
10
60
20
50
30
0
11
50
21
50
31
0
0
LINE
8
GRID_HORIZONTAL
10
59.9999998
20
50
30
0
11
70
21
50.0000002
31
0
0
LINE
8
GRID_HORIZONTAL
10
69.9999998
20
50
30
0
11
80
21
50.0000002
31
0
0
LINE
8
GRID_HORIZONTAL
10
79.9999998
20
50
30
0
11
90
21
50.0000002
31
0
0
LINE
8
GRID_HORIZONTAL
10
2e-7
20
60
30
0
11
10
21
59.9999998
31
0
0
LINE
8
GRID_HORIZONTAL
10
10.0000002
20
60
30
0
11
20
21
59.9999998
31
0
0
LINE
8
GRID_HORIZONTAL
10
20.0000002
20
60
30
0
11
30
21
59.9999998
31
0
0
LINE
8
GRID_HORIZONTAL
10
30.0000002
20
60
30
0
11
40
21
59.9999998
31
0
0
LINE
8
GRID_HORIZONTAL
10
40.0000002
20
60
30
0
11
50
21
59.9999998
31
0
0
LINE
8
GRID_HORIZONTAL
10
50.0000002
20
60
30
0
11
60
21
59.9999998
31
0
0
LINE
8
GRID_HORIZONTAL
10
60.0000002
20
60
30
0
11
70
21
59.9999998
31
0
0
LINE
8
DUPLICATE_REVERSED
10
70
20
60
30
0
11
60
21
60
31
0
0
LINE
8
GRID_HORIZONTAL
10
70.0000002
20
60
30
0
11
80
21
59.9999998
31
0
0
LINE
8
GRID_HORIZONTAL
10
80.0000002
20
60
30
0
11
90
21
59.9999998
31
0
0
LINE
8
GRID_HORIZONTAL
10
-2e-7
20
70
30
0
11
10
21
70.0000002
31
0
0
LINE
8
GRID_HORIZONTAL
10
9.9999998
20
70
30
0
11
20
21
70.0000002
31
0
0
LINE
8
GRID_HORIZONTAL
10
19.9999998
20
70
30
0
11
30
21
70.0000002
31
0
0
LINE
8
GRID_HORIZONTAL
10
29.9999998
20
70
30
0
11
40
21
70.0000002
31
0
0
LINE
8
GRID_HORIZONTAL
10
39.9999998
20
70
30
0
11
50
21
70.0000002
31
0
0
LINE
8
GRID_HORIZONTAL
10
49.9999998
20
70
30
0
11
60
21
70.0000002
31
0
0
LINE
8
GRID_HORIZONTAL
10
59.9999998
20
70
30
0
11
70
21
70.0000002
31
0
0
LINE
8
GRID_HORIZONTAL
10
69.9999998
20
70
30
0
11
80
21
70.0000002
31
0
0
LINE
8
DUPLICATE_REVERSED
10
80
20
70
30
0
11
70
21
70
31
0
0
LINE
8
GRID_HORIZONTAL
10
79.9999998
20
70
30
0
11
90
21
70.0000002
31
0
0
LINE
8
GRID_HORIZONTAL
10
2e-7
20
80
30
0
11
10
21
79.9999998
31
0
0
LINE
8
GRID_HORIZONTAL
10
10.0000002
20
80
30
0
11
20
21
79.9999998
31
0
0
LINE
8
GRID_HORIZONTAL
10
20.0000002
20
80
30
0
11
30
21
79.9999998
31
0
0
LINE
8
GRID_HORIZONTAL
10
30.0000002
20
80
30
0
11
40
21
79.9999998
31
0
0
LINE
8
GRID_HORIZONTAL
10
40.0000002
20
80
30
0
11
50
21
79.9999998
31
0
0
LINE
8
GRID_HORIZONTAL
10
50.0000002
20
80
30
0
11
60
21
79.9999998
31
0
0
LINE
8
GRID_HORIZONTAL
10
60.0000002
20
80
30
0
11
70
21
79.9999998
31
0
0
LINE
8
GRID_HORIZONTAL
10
70.0000002
20
80
30
0
11
80
21
79.9999998
31
0
0
LINE
8
GRID_HORIZONTAL
10
80.0000002
20
80
30
0
11
90
21
79.9999998
31
0
0
LINE
8
DUPLICATE_REVERSED
10
90
20
80
30
0
11
80
21
80
31
0
0
LINE
8
GRID_HORIZONTAL
10
-2e-7
20
90
30
0
11
10
21
90.0000002
31
0
0
LINE
8
GRID_HORIZONTAL
10
9.9999998
20
90
30
0
11
20
21
90.0000002
31
0
0
LINE
8
GRID_HORIZONTAL
10
19.9999998
20
90
30
0
11
30
21
90.0000002
31
0
0
LINE
8
GRID_HORIZONTAL
10
29.9999998
20
90
30
0
11
40
21
90.0000002
31
0
0
LINE
8
GRID_HORIZONTAL
10
39.9999998
20
90
30
0
11
50
21
90.0000002
31
0
0
LINE
8
GRID_HORIZONTAL
10
49.9999998
20
90
30
0
11
60
21
90.0000002
31
0
0
LINE
8
GRID_HORIZONTAL
10
59.9999998
20
90
30
0
11
70
21
90.0000002
31
0
0
LINE
8
GRID_HORIZONTAL
10
69.9999998
20
90
30
0
11
80
21
90.0000002
31
0
0
LINE
8
GRID_HORIZONTAL
10
79.9999998
20
90
30
0
11
90
21
90.0000002
31
0
0
LINE
8
GRID_VERTICAL
10
0
20
-2e-7
30
0
11
2e-7
21
10
31
0
0
LINE
8
DUPLICATE_REVERSED
10
0
20
10
30
0
11
0
21
0
31
0
0
LINE
8
GRID_VERTICAL
10
0
20
9.9999998
30
0
11
2e-7
21
20
31
0
0
LINE
8
GRID_VERTICAL
10
0
20
19.9999998
30
0
11
2e-7
21
30
31
0
0
LINE
8
GRID_VERTICAL
10
0
20
29.9999998
30
0
11
2e-7
21
40
31
0
0
LINE
8
GRID_VERTICAL
10
0
20
39.9999998
30
0
11
2e-7
21
50
31
0
0
LINE
8
GRID_VERTICAL
10
0
20
49.9999998
30
0
11
2e-7
21
60
31
0
0
LINE
8
GRID_VERTICAL
10
0
20
59.9999998
30
0
11
2e-7
21
70
31
0
0
LINE
8
GRID_VERTICAL
10
0
20
69.9999998
30
0
11
2e-7
21
80
31
0
0
LINE
8
GRID_VERTICAL
10
0
20
79.9999998
30
0
11
2e-7
21
90
31
0
0
LINE
8
GRID_VERTICAL
10
10
20
2e-7
30
0
11
9.9999998
21
10
31
0
0
LINE
8
GRID_VERTICAL
10
10
20
10.0000002
30
0
11
9.9999998
21
20
31
0
0
LINE
8
DUPLICATE_REVERSED
10
10
20
20
30
0
11
10
21
10
31
0
0
LINE
8
GRID_VERTICAL
10
10
20
20.0000002
30
0
11
9.9999998
21
30
31
0
0
LINE
8
GRID_VERTICAL
10
10
20
30.0000002
30
0
11
9.9999998
21
40
31
0
0
LINE
8
GRID_VERTICAL
10
10
20
40.0000002
30
0
11
9.9999998
21
50
31
0
0
LINE
8
GRID_VERTICAL
10
10
20
50.0000002
30
0
11
9.9999998
21
60
31
0
0
LINE
8
GRID_VERTICAL
10
10
20
60.0000002
30
0
11
9.9999998
21
70
31
0
0
LINE
8
GRID_VERTICAL
10
10
20
70.0000002
30
0
11
9.9999998
21
80
31
0
0
LINE
8
GRID_VERTICAL
10
10
20
80.0000002
30
0
11
9.9999998
21
90
31
0
0
LINE
8
GRID_VERTICAL
10
20
20
-2e-7
30
0
11
20.0000002
21
10
31
0
0
LINE
8
GRID_VERTICAL
10
20
20
9.9999998
30
0
11
20.0000002
21
20
31
0
0
LINE
8
GRID_VERTICAL
10
20
20
19.9999998
30
0
11
20.0000002
21
30
31
0
0
LINE
8
DUPLICATE_REVERSED
10
20
20
30
30
0
11
20
21
20
31
0
0
LINE
8
GRID_VERTICAL
10
20
20
29.9999998
30
0
11
20.0000002
21
40
31
0
0
LINE
8
GRID_VERTICAL
10
20
20
39.9999998
30
0
11
20.0000002
21
50
31
0
0
LINE
8
GRID_VERTICAL
10
20
20
49.9999998
30
0
11
20.0000002
21
60
31
0
0
LINE
8
GRID_VERTICAL
10
20
20
59.9999998
30
0
11
20.0000002
21
70
31
0
0
LINE
8
GRID_VERTICAL
10
20
20
69.9999998
30
0
11
20.0000002
21
80
31
0
0
LINE
8
GRID_VERTICAL
10
20
20
79.9999998
30
0
11
20.0000002
21
90
31
0
0
LINE
8
GRID_VERTICAL
10
30
20
2e-7
30
0
11
29.9999998
21
10
31
0
0
LINE
8
GRID_VERTICAL
10
30
20
10.0000002
30
0
11
29.9999998
21
20
31
0
0
LINE
8
GRID_VERTICAL
10
30
20
20.0000002
30
0
11
29.9999998
21
30
31
0
0
LINE
8
GRID_VERTICAL
10
30
20
30.0000002
30
0
11
29.9999998
21
40
31
0
0
LINE
8
DUPLICATE_REVERSED
10
30
20
40
30
0
11
30
21
30
31
0
0
LINE
8
GRID_VERTICAL
10
30
20
40.0000002
30
0
11
29.9999998
21
50
31
0
0
LINE
8
GRID_VERTICAL
10
30
20
50.0000002
30
0
11
29.9999998
21
60
31
0
0
LINE
8
GRID_VERTICAL
10
30
20
60.0000002
30
0
11
29.9999998
21
70
31
0
0
LINE
8
GRID_VERTICAL
10
30
20
70.0000002
30
0
11
29.9999998
21
80
31
0
0
LINE
8
GRID_VERTICAL
10
30
20
80.0000002
30
0
11
29.9999998
21
90
31
0
0
LINE
8
GRID_VERTICAL
10
40
20
-2e-7
30
0
11
40.0000002
21
10
31
0
0
LINE
8
GRID_VERTICAL
10
40
20
9.9999998
30
0
11
40.0000002
21
20
31
0
0
LINE
8
GRID_VERTICAL
10
40
20
19.9999998
30
0
11
40.0000002
21
30
31
0
0
LINE
8
GRID_VERTICAL
10
40
20
29.9999998
30
0
11
40.0000002
21
40
31
0
0
LINE
8
GRID_VERTICAL
10
40
20
39.9999998
30
0
11
40.0000002
21
50
31
0
0
LINE
8
DUPLICATE_REVERSED
10
40
20
50
30
0
11
40
21
40
31
0
0
LINE
8
GRID_VERTICAL
10
40
20
49.9999998
30
0
11
40.0000002
21
60
31
0
0
LINE
8
GRID_VERTICAL
10
40
20
59.9999998
30
0
11
40.0000002
21
70
31
0
0
LINE
8
GRID_VERTICAL
10
40
20
69.9999998
30
0
11
40.0000002
21
80
31
0
0
LINE
8
GRID_VERTICAL
10
40
20
79.9999998
30
0
11
40.0000002
21
90
31
0
0
LINE
8
GRID_VERTICAL
10
50
20
2e-7
30
0
11
49.9999998
21
10
31
0
0
LINE
8
GRID_VERTICAL
10
50
20
10.0000002
30
0
11
49.9999998
21
20
31
0
0
LINE
8
GRID_VERTICAL
10
50
20
20.0000002
30
0
11
49.9999998
21
30
31
0
0
LINE
8
GRID_VERTICAL
10
50
20
30.0000002
30
0
11
49.9999998
21
40
31
0
0
LINE
8
GRID_VERTICAL
10
50
20
40.0000002
30
0
11
49.9999998
21
50
31
0
0
LINE
8
GRID_VERTICAL
10
50
20
50.0000002
30
0
11
49.9999998
21
60
31
0
0
LINE
8
DUPLICATE_REVERSED
10
50
20
60
30
0
11
50
21
50
31
0
0
LINE
8
GRID_VERTICAL
10
50
20
60.0000002
30
0
11
49.9999998
21
70
31
0
0
LINE
8
GRID_VERTICAL
10
50
20
70.0000002
30
0
11
49.9999998
21
80
31
0
0
LINE
8
GRID_VERTICAL
10
50
20
80.0000002
30
0
11
49.9999998
21
90
31
0
0
LINE
8
GRID_VERTICAL
10
60
20
-2e-7
30
0
11
60.0000002
21
10
31
0
0
LINE
8
GRID_VERTICAL
10
60
20
9.9999998
30
0
11
60.0000002
21
20
31
0
0
LINE
8
GRID_VERTICAL
10
60
20
19.9999998
30
0
11
60.0000002
21
30
31
0
0
LINE
8
GRID_VERTICAL
10
60
20
29.9999998
30
0
11
60.0000002
21
40
31
0
0
LINE
8
GRID_VERTICAL
10
60
20
39.9999998
30
0
11
60.0000002
21
50
31
0
0
LINE
8
GRID_VERTICAL
10
60
20
49.9999998
30
0
11
60.0000002
21
60
31
0
0
LINE
8
GRID_VERTICAL
10
60
20
59.9999998
30
0
11
60.0000002
21
70
31
0
0
LINE
8
DUPLICATE_REVERSED
10
60
20
70
30
0
11
60
21
60
31
0
0
LINE
8
GRID_VERTICAL
10
60
20
69.9999998
30
0
11
60.0000002
21
80
31
0
0
LINE
8
GRID_VERTICAL
10
60
20
79.9999998
30
0
11
60.0000002
21
90
31
0
0
LINE
8
GRID_VERTICAL
10
70
20
2e-7
30
0
11
69.9999998
21
10
31
0
0
LINE
8
GRID_VERTICAL
10
70
20
10.0000002
30
0
11
69.9999998
21
20
31
0
0
LINE
8
GRID_VERTICAL
10
70
20
20.0000002
30
0
11
69.9999998
21
30
31
0
0
LINE
8
GRID_VERTICAL
10
70
20
30.0000002
30
0
11
69.9999998
21
40
31
0
0
LINE
8
GRID_VERTICAL
10
70
20
40.0000002
30
0
11
69.9999998
21
50
31
0
0
LINE
8
GRID_VERTICAL
10
70
20
50.0000002
30
0
11
69.9999998
21
60
31
0
0
LINE
8
GRID_VERTICAL
10
70
20
60.0000002
30
0
11
69.9999998
21
70
31
0
0
LINE
8
GRID_VERTICAL
10
70
20
70.0000002
30
0
11
69.9999998
21
80
31
0
0
LINE
8
DUPLICATE_REVERSED
10
70
20
80
30
0
11
70
21
70
31
0
0
LINE
8
GRID_VERTICAL
10
70
20
80.0000002
30
0
11
69.9999998
21
90
31
0
0
LINE
8
GRID_VERTICAL
10
80
20
-2e-7
30
0
11
80.0000002
21
10
31
0
0
LINE
8
GRID_VERTICAL
10
80
20
9.9999998
30
0
11
80.0000002
21
20
31
0
0
LINE
8
GRID_VERTICAL
10
80
20
19.9999998
30
0
11
80.0000002
21
30
31
0
0
LINE
8
GRID_VERTICAL
10
80
20
29.9999998
30
0
11
80.0000002
21
40
31
0
0
LINE
8
GRID_VERTICAL
10
80
20
39.9999998
30
0
11
80.0000002
21
50
31
0
0
LINE
8
GRID_VERTICAL
10
80
20
49.9999998
30
0
11
80.0000002
21
60
31
0
0
LINE
8
GRID_VERTICAL
10
80
20
59.9999998
30
0
11
80.0000002
21
70
31
0
0
LINE
8
GRID_VERTICAL
10
80
20
69.9999998
30
0
11
80.0000002
21
80
31
0
0
LINE
8
GRID_VERTICAL
10
80
20
79.9999998
30
0
11
80.0000002
21
90
31
0
0
LINE
8
DUPLICATE_REVERSED
10
80
20
90
30
0
11
80
21
80
31
0
0
LINE
8
GRID_VERTICAL
10
90
20
2e-7
30
0
11
89.9999998
21
10
31
0
0
LINE
8
GRID_VERTICAL
10
90
20
10.0000002
30
0
11
89.9999998
21
20
31
0
0
LINE
8
GRID_VERTICAL
10
90
20
20.0000002
30
0
11
89.9999998
21
30
31
0
0
LINE
8
GRID_VERTICAL
10
90
20
30.0000002
30
0
11
89.9999998
21
40
31
0
0
LINE
8
GRID_VERTICAL
10
90
20
40.0000002
30
0
11
89.9999998
21
50
31
0
0
LINE
8
GRID_VERTICAL
10
90
20
50.0000002
30
0
11
89.9999998
21
60
31
0
0
LINE
8
GRID_VERTICAL
10
90
20
60.0000002
30
0
11
89.9999998
21
70
31
0
0
LINE
8
GRID_VERTICAL
10
90
20
70.0000002
30
0
11
89.9999998
21
80
31
0
0
LINE
8
GRID_VERTICAL
10
90
20
80.0000002
30
0
11
89.9999998
21
90
31
0
0
LINE
8
DIAGONAL
10
0
20
0
30
0
11
10.0000002
21
9.9999998
31
0
0
LINE
8
DIAGONAL
10
10
20
0
30
0
11
-2e-7
21
10.0000002
31
0
0
LINE
8
DIAGONAL
10
10
20
10
30
0
11
20.0000002
21
19.9999998
31
0
0
LINE
8
DIAGONAL
10
20
20
10
30
0
11
9.9999998
21
20.0000002
31
0
0
LINE
8
DIAGONAL
10
20
20
20
30
0
11
30.0000002
21
29.9999998
31
0
0
LINE
8
DIAGONAL
10
30
20
20
30
0
11
19.9999998
21
30.0000002
31
0
0
LINE
8
DIAGONAL
10
30
20
30
30
0
11
40.0000002
21
39.9999998
31
0
0
LINE
8
DIAGONAL
10
40
20
30
30
0
11
29.9999998
21
40.0000002
31
0
0
LINE
8
DIAGONAL
10
40
20
40
30
0
11
50.0000002
21
49.9999998
31
0
0
LINE
8
DIAGONAL
10
50
20
40
30
0
11
39.9999998
21
50.0000002
31
0
0
LINE
8
DIAGONAL
10
50
20
50
30
0
11
60.0000002
21
59.9999998
31
0
0
LINE
8
DIAGONAL
10
60
20
50
30
0
11
49.9999998
21
60.0000002
31
0
0
LINE
8
DIAGONAL
10
60
20
60
30
0
11
70.0000002
21
69.9999998
31
0
0
LINE
8
DIAGONAL
10
70
20
60
30
0
11
59.9999998
21
70.0000002
31
0
0
LINE
8
DIAGONAL
10
70
20
70
30
0
11
80.0000002
21
79.9999998
31
0
0
LINE
8
DIAGONAL
10
80
20
70
30
0
11
69.9999998
21
80.0000002
31
0
0
LINE
8
DIAGONAL
10
80
20
80
30
0
11
90.0000002
21
89.9999998
31
0
0
LINE
8
DIAGONAL
10
90
20
80
30
0
11
79.9999998
21
90.0000002
31
0
0
ENDSEC
0
EOF
